<?xml version="1.0" standalone="no"?>
<!DOCTYPE svg>
<svg version="1.0"
 width="90" height="80" viewBox="0 0 1200.000000 630.000000"
 preserveAspectRatio="xMidYMid meet">
<g transform="translate(0.000000,630.000000) scale(0.100000,-0.100000)"
fill="#FFFFFF" stroke="none">
<path d="M3525 6185 c-241 -53 -443 -223 -526 -444 -52 -138 -49 -8 -47 -2623
l3 -2433 26 -77 c38 -109 91 -199 166 -278 76 -81 150 -133 248 -173 144 -59
90 -57 1621 -57 l1404 0 -2 238 -3 237 -1410 5 c-1354 5 -1411 6 -1448 24 -48
24 -101 85 -115 135 -9 29 -12 641 -12 2422 0 2301 1 2385 19 2424 23 49 74
99 123 119 33 14 290 16 2419 16 1779 0 2391 -3 2420 -12 50 -14 111 -67 135
-115 18 -36 19 -93 24 -1418 l5 -1380 238 -3 237 -2 0 1374 c0 1498 2 1447
-57 1591 -80 194 -241 342 -451 414 l-77 26 -2440 2 c-1993 1 -2451 -1 -2500
-12z"/>
<path d="M4333 4894 c-57 -21 -129 -86 -161 -148 -37 -70 -38 -189 -3 -256 36
-70 113 -137 179 -156 198 -58 386 79 386 281 0 169 -129 296 -298 294 -34 0
-80 -7 -103 -15z"/>
<path d="M5330 4615 l0 -235 1205 0 1205 0 0 235 0 235 -1205 0 -1205 0 0
-235z"/>
<path d="M4350 3471 c-73 -22 -140 -83 -181 -161 -19 -36 -24 -60 -24 -125 1
-69 4 -87 30 -133 32 -60 75 -101 138 -134 34 -18 58 -23 127 -23 76 0 91 3
138 30 141 77 196 246 128 387 -32 68 -99 130 -163 152 -48 17 -149 20 -193 7z"/>
<path d="M5330 3185 l0 -235 1205 0 1205 0 0 235 0 235 -1205 0 -1205 0 0
-235z"/>
<path d="M7559 2559 c-427 -62 -759 -339 -888 -739 -122 -374 -23 -788 257
-1074 145 -148 308 -241 519 -293 92 -23 128 -27 248 -26 122 0 155 4 255 31
63 16 155 49 204 72 l89 42 236 -236 236 -236 168 167 167 168 -232 232 -232
232 41 78 c232 435 156 947 -191 1286 -228 223 -576 341 -877 296z m247 -480
c141 -25 299 -133 384 -262 94 -143 120 -338 66 -502 -137 -422 -669 -553
-982 -240 -118 119 -174 253 -174 422 0 166 55 299 174 419 140 141 331 199
532 163z"/>
<path d="M4351 1959 c-75 -23 -140 -80 -184 -163 -17 -32 -22 -58 -22 -121 0
-93 21 -143 88 -213 102 -105 288 -111 401 -11 99 87 129 233 72 351 -48 101
-137 159 -251 164 -38 2 -85 -1 -104 -7z"/>
<path d="M5332 1673 c2 -131 6 -237 11 -235 4 1 185 2 402 2 l395 0 0 235 0
235 -405 0 -405 0 2 -237z"/>
</g>
</svg>
