<svg width="30" height="30" viewBox="0 0 52 51" fill="none" xmlns="http://www.w3.org/2000/svg">
<path d="M51.5527 23.2713L43.8184 16.2276V4.688H34.909V8.11421L25.9995 0L0.447226 23.2713C0.0872842 23.5999 0.0659016 24.153 0.400897 24.5069C0.735001 24.8599 1.29897 24.88 1.66069 24.5524L4.61774 21.8593V51H18.8729H33.128H47.3831V21.8584L50.3401 24.5515C50.5112 24.7079 50.7295 24.7848 50.9469 24.7848C51.1865 24.7848 51.4244 24.6913 51.599 24.506C51.934 24.153 51.9127 23.5999 51.5527 23.2713ZM36.6909 6.43562H42.0365V14.6049L36.6909 9.73688V6.43562ZM20.6539 49.2524V30.8473C20.6539 30.3955 21.0281 30.0285 21.4887 30.0285H30.5104C30.971 30.0285 31.3452 30.3955 31.3452 30.8473V49.2524H20.6539ZM45.6003 49.2524H33.1271V30.8473C33.1271 29.4317 31.9537 28.2809 30.5104 28.2809H21.4887C20.0453 28.2809 18.872 29.4317 18.872 30.8473V49.2524H6.39874V20.2357L25.9995 2.38463L38.7222 13.9714L43.8184 18.6122L45.6003 20.2348V49.2524Z" fill="white" stroke="white" stroke-width="2"/>
</svg>
