<svg width="30" height="30" viewBox="0 0 49 47" fill="none" xmlns="http://www.w3.org/2000/svg">
<path d="M23.6361 44.3069H10.3341C6.71912 44.3069 3.78597 41.5938 3.78597 38.2723V8.72772C3.78597 5.39622 6.72995 2.69312 10.3341 2.69312H23.8526C24.6644 2.69312 25.3138 2.09465 25.3138 1.34656C25.3138 0.598472 24.6644 0 23.8526 0H10.3341C5.10643 0 0.863647 3.91999 0.863647 8.72772V38.2723C0.863647 43.09 5.11725 47 10.3341 47H23.6361C24.4479 47 25.0973 46.4015 25.0973 45.6534C25.0973 44.9053 24.4371 44.3069 23.6361 44.3069Z" fill="white"/>
<path d="M47.7074 22.5524L38.4209 13.9942C37.8472 13.4656 36.9272 13.4656 36.3536 13.9942C35.78 14.5229 35.78 15.3707 36.3536 15.8994L43.1507 22.1634H13.5054C12.6936 22.1634 12.0442 22.7618 12.0442 23.5099C12.0442 24.258 12.6936 24.8565 13.5054 24.8565H43.1507L36.3536 31.1205C35.78 31.6491 35.78 32.497 36.3536 33.0256C36.635 33.285 37.0138 33.4246 37.3818 33.4246C37.7498 33.4246 38.1286 33.2949 38.4101 33.0256L47.6966 24.4675C48.281 23.9289 48.281 23.0711 47.7074 22.5524Z" fill="white"/>
</svg>
