<svg width="30" height="30" viewBox="0 0 58 59" fill="none" xmlns="http://www.w3.org/2000/svg">
<path d="M54.6013 31.5269V26.0441C54.6013 25.0895 53.8405 24.3156 52.9021 24.3156C49.3918 24.3156 46.1191 24.6169 43.0271 25.2323C41.2247 23.4617 39.0274 22.1771 36.6479 21.475C39.2425 19.2536 40.8943 15.9276 40.8943 12.216C40.8943 5.48069 35.5585 0.00119019 28.9998 0.00119019C22.4412 0.00119019 17.1053 5.48069 17.1053 12.216C17.1053 15.9276 18.7572 19.2536 21.3519 21.4748C18.9724 22.1771 16.7751 23.4617 14.9727 25.2322C11.8807 24.6169 8.608 24.3155 5.09765 24.3155C4.15923 24.3155 3.39843 25.0894 3.39843 26.044V31.5268C1.42066 32.2404 0 34.1617 0 36.4151V39.8721C0 42.1255 1.42066 44.0468 3.39843 44.7603V50.2432C3.39843 51.1978 4.15923 51.9717 5.09765 51.9717C13.9822 51.9717 21.2778 54.1131 28.0574 58.7107C28.6255 59.0958 29.3739 59.0967 29.9426 58.7107C36.7222 54.1131 44.0177 51.9717 52.9024 51.9717C53.8408 51.9717 54.6016 51.1978 54.6016 50.2432V44.7603C56.5793 44.0468 58 42.1255 58 39.8721V36.4151C57.9998 34.1618 56.5791 32.2405 54.6013 31.5269ZM20.5038 12.216C20.5038 7.38689 24.3151 3.45821 28.9998 3.45821C33.6846 3.45821 37.4959 7.38689 37.4959 12.216C37.4959 16.9815 33.6846 20.8586 28.9998 20.8586C24.3151 20.8586 20.5038 16.9815 20.5038 12.216ZM5.09753 41.6007C4.16059 41.6007 3.39832 40.8253 3.39832 39.8722V36.4152C3.39832 35.4621 4.16059 34.6867 5.09753 34.6867C6.03448 34.6867 6.79675 35.4621 6.79675 36.4152V39.8722C6.79675 40.8253 6.03448 41.6007 5.09753 41.6007ZM27.3006 54.171C21.1321 50.5825 14.5128 48.7689 6.79675 48.5397V44.7604C8.77452 44.0469 10.1952 42.1256 10.1952 39.8722V36.4152C10.1952 34.1618 8.77452 32.2405 6.79675 31.5269V27.7971C14.7809 28.0302 21.1986 29.9427 27.3006 33.8948V54.171ZM28.9998 30.9C25.8635 28.8869 22.599 27.3542 19.114 26.2771C21.0289 25.0112 23.2831 24.3156 25.6014 24.3156H32.3983C34.7166 24.3156 36.9707 25.0112 38.8856 26.2771C35.4007 27.3542 32.136 28.8869 28.9998 30.9ZM51.2029 48.5397C43.487 48.7689 36.8674 50.583 30.699 54.1713V33.8962C36.8012 29.9437 43.2184 28.0301 51.2029 27.7971V31.5269C49.2251 32.2405 47.8045 34.1618 47.8045 36.4152V39.8722C47.8045 42.1256 49.2251 44.0469 51.2029 44.7604V48.5397ZM54.6013 39.8722C54.6013 40.8253 53.8391 41.6007 52.9021 41.6007C51.9652 41.6007 51.2029 40.8253 51.2029 39.8722V36.4152C51.2029 35.4621 51.9652 34.6867 52.9021 34.6867C53.8391 34.6867 54.6013 35.4621 54.6013 36.4152V39.8722Z" fill="white"/>
</svg>
