<svg width="30" height="30" viewBox="0 0 46 46" fill="none" xmlns="http://www.w3.org/2000/svg">
<path d="M37.4334 12.4353H29.7966V16.9671H37.4334C39.7053 16.9671 41.4674 18.1265 41.4674 19.125V39.2212C41.4674 40.219 39.7053 41.3799 37.4334 41.3799H8.56509C6.29391 41.3799 4.5318 40.219 4.5318 39.2212V19.1272C4.5318 18.1287 6.29391 16.9686 8.56509 16.9686H16.2012V12.4368H8.56509C3.76215 12.4368 0 15.3757 0 19.1272V39.222C0 42.9743 3.76215 45.9117 8.56509 45.9117H37.4349C42.2363 45.9117 46 42.9728 46 39.222V19.1272C45.9992 15.3741 42.2371 12.4353 37.4334 12.4353Z" fill="#878686"/>
<path d="M29.8562 21.9067C29.2761 21.9067 28.6968 22.1288 28.2542 22.5714L25.4173 25.4075V15.5682V11.0364V2.35428C25.4173 1.1035 24.4029 0.0883789 23.1514 0.0883789C21.8998 0.0883789 20.8855 1.1035 20.8855 2.35428V11.0357V15.5675V25.5601L17.8952 22.5706C17.4526 22.128 16.8726 21.906 16.2932 21.906C15.7139 21.906 15.1339 22.128 14.6913 22.5706C13.806 23.4543 13.806 24.8894 14.6913 25.7738L21.4565 32.5391C21.8991 32.9817 22.4791 33.2015 23.0577 33.2015C23.0637 33.2015 23.0698 33.2015 23.0751 33.2015C23.0804 33.2015 23.0864 33.2015 23.0917 33.2015C23.6718 33.2015 24.2503 32.9817 24.6929 32.5391L31.4581 25.7738C32.3434 24.8894 32.3434 23.4543 31.4581 22.5706C31.0155 22.1288 30.437 21.9067 29.8562 21.9067Z" fill="#878686"/>
</svg>
