<svg width="58" height="41" viewBox="0 0 58 41" fill="none" xmlns="http://www.w3.org/2000/svg">
<path d="M50.1896 0.320007H6.99083C3.13463 0.320007 0 3.19672 0 6.73562V33.831C0 37.3699 3.13463 40.2466 6.99083 40.2466H50.1778C54.034 40.2466 57.1686 37.3699 57.1686 33.831V6.74648C57.1805 3.20758 54.0458 0.320007 50.1896 0.320007ZM53.9867 33.831C53.9867 35.7524 52.2833 37.3156 50.1896 37.3156H6.99083C4.89713 37.3156 3.19378 35.7524 3.19378 33.831V6.74648C3.19378 4.82505 4.89713 3.26185 6.99083 3.26185H50.1778C52.2715 3.26185 53.9749 4.82505 53.9749 6.74648V33.831H53.9867Z" fill="white"/>
<path d="M36.0541 19.9467L50.0358 8.43988C50.6863 7.8971 50.7455 6.97438 50.154 6.36647C49.5626 5.76942 48.5572 5.71514 47.8947 6.25792L28.6138 22.1395L24.8522 19.0566C24.8404 19.0457 24.8286 19.0349 24.8286 19.024C24.7458 18.948 24.663 18.8829 24.5683 18.8178L9.26184 6.24706C8.59943 5.70428 7.59398 5.75856 7.00254 6.36647C6.4111 6.97438 6.47024 7.8971 7.13266 8.43988L21.2799 20.0444L7.1918 32.1483C6.55304 32.702 6.51756 33.6247 7.12083 34.2217C7.44021 34.5257 7.86604 34.6885 8.29188 34.6885C8.68223 34.6885 9.07258 34.5583 9.38013 34.2977L23.6812 22.0201L27.561 25.2008C27.8686 25.4505 28.2471 25.5699 28.6256 25.5699C29.0041 25.5699 29.3945 25.4396 29.6902 25.19L33.6765 21.9116L47.8947 34.3086C48.2023 34.58 48.6045 34.7102 48.9948 34.7102C49.4207 34.7102 49.8347 34.5583 50.154 34.2543C50.7573 33.6681 50.7337 32.7345 50.0949 32.1809L36.0541 19.9467Z" fill="white"/>
</svg>
